<svg width="25" height="25" viewBox="0 0 25 25" fill="none" xmlns="http://www.w3.org/2000/svg">
<path fill-rule="evenodd" clip-rule="evenodd" d="M0 12.5C0 5.597 5.597 0 12.5 0C19.403 0 25 5.597 25 12.5C25 19.403 19.403 25 12.5 25C5.597 25 0 19.403 0 12.5ZM21.1624 12.5C21.1624 7.813 17.3494 4 12.6624 4C7.97541 4 4.16241 7.813 4.16241 12.5C4.16241 17.187 7.97541 21 12.6624 21C17.3494 21 21.1624 17.187 21.1624 12.5Z" fill="#B5B5B5"/>
<path d="M12.6624 17C15.1477 17 17.1624 14.9853 17.1624 12.5C17.1624 10.0147 15.1477 8 12.6624 8C10.1771 8 8.16241 10.0147 8.16241 12.5C8.16241 14.9853 10.1771 17 12.6624 17Z" fill="#B5B5B5"/>
</svg>
